<?xml version="1.0" encoding="UTF-8" standalone="no"?><!DOCTYPE svg PUBLIC "-//W3C//DTD SVG 1.1//EN" "http://www.w3.org/Graphics/SVG/1.1/DTD/svg11.dtd"><!-- Generated by graphviz version 2.40.1 (20161225.0304)
 --><!-- Title: G Pages: 1 --><svg xmlns="http://www.w3.org/2000/svg" xmlns:xlink="http://www.w3.org/1999/xlink" width="713pt" height="836pt" viewBox="0.00 0.00 712.81 835.85">
<g id="graph0" class="graph" transform="scale(1 1) rotate(0) translate(4 831.846)">
<title>G</title>
<polygon fill="#ffffff" stroke="transparent" points="-4,4 -4,-831.846 708.8075,-831.846 708.8075,4 -4,4"/>
<!-- Launch_Game -->
<g id="node1" class="node">
<title>Launch_Game</title>
<ellipse fill="none" stroke="#000000" cx="67.8802" cy="-533" rx="67.7606" ry="18"/>
<text text-anchor="middle" x="67.8802" y="-528.8" font-family="Times,serif" font-size="14.00" fill="#000000">Launch_Game</text>
</g>
<!-- Play -->
<g id="node2" class="node">
<title>Play</title>
<ellipse fill="none" stroke="#000000" cx="239.6637" cy="-533" rx="28.4088" ry="18"/>
<text text-anchor="middle" x="239.6637" y="-528.8" font-family="Times,serif" font-size="14.00" fill="#000000">Play</text>
</g>
<!-- Launch_Game&#45;&gt;Play -->
<g id="edge1" class="edge">
<title>Launch_Game-&gt;Play</title>
<path fill="none" stroke="#000000" d="M135.7736,-533C157.9296,-533 181.7586,-533 200.9992,-533"/>
<polygon fill="#000000" stroke="#000000" points="201.1767,-536.5001 211.1767,-533 201.1767,-529.5001 201.1767,-536.5001"/>
</g>
<!-- Menu -->
<g id="node3" class="node">
<title>Menu</title>
<ellipse fill="none" stroke="#000000" cx="239.6637" cy="-371" rx="33.6286" ry="18"/>
<text text-anchor="middle" x="239.6637" y="-366.8" font-family="Times,serif" font-size="14.00" fill="#000000">Menu</text>
</g>
<!-- Launch_Game&#45;&gt;Menu -->
<g id="edge2" class="edge">
<title>Launch_Game-&gt;Menu</title>
<path fill="none" stroke="#000000" d="M82.5263,-515.2082C111.0396,-485.0726 174.4397,-424.8901 211.4033,-392.4916"/>
<polygon fill="#000000" stroke="#000000" points="214.0431,-394.8356 219.3098,-385.6425 209.4597,-389.5447 214.0431,-394.8356"/>
</g>
<!-- gotobord -->
<g id="node4" class="node">
<title>gotobord</title>
<ellipse fill="none" stroke="#000000" cx="642.2695" cy="-787" rx="45.8118" ry="18"/>
<text text-anchor="middle" x="642.2695" y="-782.8" font-family="Times,serif" font-size="14.00" fill="#000000">gotobord</text>
</g>
<!-- Launch_Game&#45;&gt;gotobord -->
<g id="edge3" class="edge">
<title>Launch_Game-&gt;gotobord</title>
<path fill="none" stroke="#000000" d="M74.4891,-550.9349C88.1034,-585.908 122.2105,-664.1475 171.7604,-714 234.0435,-776.6637 258.2667,-790.983 343.5671,-814 429.4571,-837.1761 455.5637,-825.8607 543.7315,-814 561.6379,-811.5912 580.8949,-806.8247 597.5928,-801.9581"/>
<polygon fill="#000000" stroke="#000000" points="599.0591,-805.1718 607.6239,-798.9353 597.0393,-798.4695 599.0591,-805.1718"/>
</g>
<!-- Move_Snoopy -->
<g id="node5" class="node">
<title>Move_Snoopy</title>
<ellipse fill="none" stroke="#000000" cx="239.6637" cy="-687" rx="67.8069" ry="18"/>
<text text-anchor="middle" x="239.6637" y="-682.8" font-family="Times,serif" font-size="14.00" fill="#000000">Move_Snoopy</text>
</g>
<!-- Launch_Game&#45;&gt;Move_Snoopy -->
<g id="edge4" class="edge">
<title>Launch_Game-&gt;Move_Snoopy</title>
<path fill="none" stroke="#000000" d="M87.252,-550.3664C118.0062,-577.9368 178.077,-631.7889 212.9149,-663.0203"/>
<polygon fill="#000000" stroke="#000000" points="210.5804,-665.628 220.3627,-669.6971 215.253,-660.4158 210.5804,-665.628"/>
</g>
<!-- Load_MAP -->
<g id="node6" class="node">
<title>Load_MAP</title>
<ellipse fill="none" stroke="#000000" cx="443.6493" cy="-180" rx="56.7639" ry="18"/>
<text text-anchor="middle" x="443.6493" y="-175.8" font-family="Times,serif" font-size="14.00" fill="#000000">Load_MAP</text>
</g>
<!-- Play&#45;&gt;Load_MAP -->
<g id="edge5" class="edge">
<title>Play-&gt;Load_MAP</title>
<path fill="none" stroke="#000000" d="M249.7372,-516.0823C264.2797,-491.0434 291.2016,-442.2971 307.5671,-398 330.728,-335.3092 306.1369,-307.3674 343.5671,-252 358.3954,-230.0656 382.2601,-212.5182 402.9667,-200.2394"/>
<polygon fill="#000000" stroke="#000000" points="404.9599,-203.1319 411.9123,-195.1373 401.4918,-197.0514 404.9599,-203.1319"/>
</g>
<!-- Mask_Console_Cursor -->
<g id="node7" class="node">
<title>Mask_Console_Cursor</title>
<ellipse fill="none" stroke="#000000" cx="443.6493" cy="-587" rx="100.1645" ry="18"/>
<text text-anchor="middle" x="443.6493" y="-582.8" font-family="Times,serif" font-size="14.00" fill="#000000">Mask_Console_Cursor</text>
</g>
<!-- Play&#45;&gt;Mask_Console_Cursor -->
<g id="edge6" class="edge">
<title>Play-&gt;Mask_Console_Cursor</title>
<path fill="none" stroke="#000000" d="M265.9137,-539.949C293.8676,-547.3491 339.2119,-559.3528 377.1024,-569.3834"/>
<polygon fill="#000000" stroke="#000000" points="376.5012,-572.8447 387.0639,-572.0205 378.2926,-566.0778 376.5012,-572.8447"/>
</g>
<!-- kbhit -->
<g id="node8" class="node">
<title>kbhit</title>
<ellipse fill="none" stroke="#000000" cx="443.6493" cy="-641" rx="30.7789" ry="18"/>
<text text-anchor="middle" x="443.6493" y="-636.8" font-family="Times,serif" font-size="14.00" fill="#000000">kbhit</text>
</g>
<!-- Play&#45;&gt;kbhit -->
<g id="edge7" class="edge">
<title>Play-&gt;kbhit</title>
<path fill="none" stroke="#000000" d="M255.1837,-548.4041C274.3717,-566.6164 308.7747,-596.6392 343.5671,-614 362.404,-623.3993 384.9228,-629.8462 403.8257,-634.0763"/>
<polygon fill="#000000" stroke="#000000" points="403.1173,-637.5038 413.6248,-636.1465 404.5642,-630.655 403.1173,-637.5038"/>
</g>
<!-- Draw_MAP -->
<g id="node9" class="node">
<title>Draw_MAP</title>
<ellipse fill="none" stroke="#000000" cx="443.6493" cy="-733" rx="58.4667" ry="18"/>
<text text-anchor="middle" x="443.6493" y="-728.8" font-family="Times,serif" font-size="14.00" fill="#000000">Draw_MAP</text>
</g>
<!-- Play&#45;&gt;Draw_MAP -->
<g id="edge8" class="edge">
<title>Play-&gt;Draw_MAP</title>
<path fill="none" stroke="#000000" d="M249.9296,-549.8286C267.0044,-576.9132 303.3624,-630.8881 343.5671,-668 362.1819,-685.1828 385.8466,-700.7801 405.4905,-712.3865"/>
<polygon fill="#000000" stroke="#000000" points="403.7928,-715.4478 414.2006,-717.4297 407.3003,-709.39 403.7928,-715.4478"/>
</g>
<!-- Move_Ball -->
<g id="node10" class="node">
<title>Move_Ball</title>
<ellipse fill="none" stroke="#000000" cx="443.6493" cy="-479" rx="54.4739" ry="18"/>
<text text-anchor="middle" x="443.6493" y="-474.8" font-family="Times,serif" font-size="14.00" fill="#000000">Move_Ball</text>
</g>
<!-- Play&#45;&gt;Move_Ball -->
<g id="edge9" class="edge">
<title>Play-&gt;Move_Ball</title>
<path fill="none" stroke="#000000" d="M265.9137,-526.051C297.3593,-517.7266 350.8109,-503.5766 390.9035,-492.9631"/>
<polygon fill="#000000" stroke="#000000" points="392.0159,-496.2893 400.7872,-490.3467 390.2245,-489.5224 392.0159,-496.2893"/>
</g>
<!-- Check_Events -->
<g id="node11" class="node">
<title>Check_Events</title>
<ellipse fill="none" stroke="#000000" cx="443.6493" cy="-425" rx="66.6363" ry="18"/>
<text text-anchor="middle" x="443.6493" y="-420.8" font-family="Times,serif" font-size="14.00" fill="#000000">Check_Events</text>
</g>
<!-- Play&#45;&gt;Check_Events -->
<g id="edge10" class="edge">
<title>Play-&gt;Check_Events</title>
<path fill="none" stroke="#000000" d="M255.1837,-517.5959C274.3717,-499.3836 308.7747,-469.3608 343.5671,-452 354.7487,-446.4206 367.2277,-441.8814 379.4776,-438.2288"/>
<polygon fill="#000000" stroke="#000000" points="380.5454,-441.5643 389.2236,-435.4865 378.6493,-434.826 380.5454,-441.5643"/>
</g>
<!-- Menu&#45;&gt;Launch_Game -->
<g id="edge23" class="edge">
<title>Menu-&gt;Launch_Game</title>
<path fill="none" stroke="#000000" d="M225.8195,-387.9425C198.3384,-417.1155 136.3124,-476.0873 98.6853,-509.2709"/>
<polygon fill="#000000" stroke="#000000" points="96.2778,-506.7266 91.0477,-515.9405 100.8822,-511.9992 96.2778,-506.7266"/>
</g>
<!-- getch -->
<g id="node18" class="node">
<title>getch</title>
<ellipse fill="none" stroke="#000000" cx="642.2695" cy="-338" rx="31.9012" ry="18"/>
<text text-anchor="middle" x="642.2695" y="-333.8" font-family="Times,serif" font-size="14.00" fill="#000000">getch</text>
</g>
<!-- Menu&#45;&gt;getch -->
<g id="edge24" class="edge">
<title>Menu-&gt;getch</title>
<path fill="none" stroke="#000000" d="M268.4096,-361.5905C289.0677,-355.3082 317.7191,-347.5677 343.5671,-344 434.2623,-331.4817 541.8965,-333.3738 599.9924,-335.7556"/>
<polygon fill="#000000" stroke="#000000" points="600.1054,-339.2638 610.2484,-336.2027 600.4103,-332.2704 600.1054,-339.2638"/>
</g>
<!-- Rules -->
<g id="node19" class="node">
<title>Rules</title>
<ellipse fill="none" stroke="#000000" cx="443.6493" cy="-279" rx="33.0624" ry="18"/>
<text text-anchor="middle" x="443.6493" y="-274.8" font-family="Times,serif" font-size="14.00" fill="#000000">Rules</text>
</g>
<!-- Menu&#45;&gt;Rules -->
<g id="edge22" class="edge">
<title>Menu-&gt;Rules</title>
<path fill="none" stroke="#000000" d="M260.8442,-356.9578C281.3565,-343.8016 313.6602,-324.2328 343.5671,-311 362.9396,-302.4283 385.3311,-295.0484 404.0161,-289.5429"/>
<polygon fill="#000000" stroke="#000000" points="405.0492,-292.8877 413.6923,-286.7601 403.1144,-286.1604 405.0492,-292.8877"/>
</g>
<!-- listdirfiles -->
<g id="node20" class="node">
<title>listdirfiles</title>
<ellipse fill="none" stroke="#000000" cx="443.6493" cy="-371" rx="50.3897" ry="18"/>
<text text-anchor="middle" x="443.6493" y="-366.8" font-family="Times,serif" font-size="14.00" fill="#000000">listdirfiles</text>
</g>
<!-- Menu&#45;&gt;listdirfiles -->
<g id="edge25" class="edge">
<title>Menu-&gt;listdirfiles</title>
<path fill="none" stroke="#000000" d="M273.3478,-371C303.0097,-371 346.9371,-371 382.7486,-371"/>
<polygon fill="#000000" stroke="#000000" points="383.0949,-374.5001 393.0949,-371 383.0949,-367.5001 383.0949,-374.5001"/>
</g>
<!-- Move_Snoopy&#45;&gt;kbhit -->
<g id="edge18" class="edge">
<title>Move_Snoopy-&gt;kbhit</title>
<path fill="none" stroke="#000000" d="M291.4016,-675.3328C326.6552,-667.3829 372.588,-657.0248 404.7438,-649.7734"/>
<polygon fill="#000000" stroke="#000000" points="405.6838,-653.1494 414.6689,-647.5353 404.1439,-646.3209 405.6838,-653.1494"/>
</g>
<!-- Pos_Snoopy -->
<g id="node17" class="node">
<title>Pos_Snoopy</title>
<ellipse fill="none" stroke="#000000" cx="443.6493" cy="-787" rx="59.1565" ry="18"/>
<text text-anchor="middle" x="443.6493" y="-782.8" font-family="Times,serif" font-size="14.00" fill="#000000">Pos_Snoopy</text>
</g>
<!-- Move_Snoopy&#45;&gt;Pos_Snoopy -->
<g id="edge17" class="edge">
<title>Move_Snoopy-&gt;Pos_Snoopy</title>
<path fill="none" stroke="#000000" d="M267.9786,-703.4171C287.9748,-717.8923 316.0155,-738.0972 343.5671,-751 360.5971,-758.9754 380.3989,-764.9384 397.8725,-769.8152"/>
<polygon fill="#000000" stroke="#000000" points="397.2825,-773.2831 407.8531,-772.5681 399.1437,-766.5351 397.2825,-773.2831"/>
</g>
<!-- Move_Snoopy&#45;&gt;getch -->
<g id="edge19" class="edge">
<title>Move_Snoopy-&gt;getch</title>
<path fill="none" stroke="#000000" d="M304.6862,-692.2377C383.6816,-697.0677 510.5373,-699.3902 543.7315,-668 592.9984,-621.4108 539.197,-419.3575 579.7315,-365 585.4423,-357.3417 593.7761,-351.8281 602.5089,-347.8683"/>
<polygon fill="#000000" stroke="#000000" points="603.991,-351.0471 612.0362,-344.1533 601.4479,-344.5254 603.991,-351.0471"/>
</g>
<!-- getcwd -->
<g id="node12" class="node">
<title>getcwd</title>
<ellipse fill="none" stroke="#000000" cx="642.2695" cy="-176" rx="38.844" ry="18"/>
<text text-anchor="middle" x="642.2695" y="-171.8" font-family="Times,serif" font-size="14.00" fill="#000000">getcwd</text>
</g>
<!-- Load_MAP&#45;&gt;getcwd -->
<g id="edge11" class="edge">
<title>Load_MAP-&gt;getcwd</title>
<path fill="none" stroke="#000000" d="M500.3001,-178.8591C529.6086,-178.2689 565.0375,-177.5554 593.1709,-176.9888"/>
<polygon fill="#000000" stroke="#000000" points="593.2534,-180.4879 603.1809,-176.7872 593.1124,-173.4894 593.2534,-180.4879"/>
</g>
<!-- fopen -->
<g id="node13" class="node">
<title>fopen</title>
<ellipse fill="none" stroke="#000000" cx="642.2695" cy="-122" rx="33.0469" ry="18"/>
<text text-anchor="middle" x="642.2695" y="-117.8" font-family="Times,serif" font-size="14.00" fill="#000000">fopen</text>
</g>
<!-- Load_MAP&#45;&gt;fopen -->
<g id="edge12" class="edge">
<title>Load_MAP-&gt;fopen</title>
<path fill="none" stroke="#000000" d="M487.6044,-168.562C505.114,-163.8962 525.4201,-158.3479 543.7315,-153 563.776,-147.146 585.9715,-140.2041 604.2148,-134.3749"/>
<polygon fill="#000000" stroke="#000000" points="605.4525,-137.6536 613.9045,-131.265 603.3133,-130.9885 605.4525,-137.6536"/>
</g>
<!-- fclose -->
<g id="node14" class="node">
<title>fclose</title>
<ellipse fill="none" stroke="#000000" cx="642.2695" cy="-68" rx="34.1852" ry="18"/>
<text text-anchor="middle" x="642.2695" y="-63.8" font-family="Times,serif" font-size="14.00" fill="#000000">fclose</text>
</g>
<!-- Load_MAP&#45;&gt;fclose -->
<g id="edge13" class="edge">
<title>Load_MAP-&gt;fclose</title>
<path fill="none" stroke="#000000" d="M496.593,-173.4377C512.875,-169.4834 530.0844,-163.1482 543.7315,-153 568.0776,-134.8958 556.7515,-114.8094 579.7315,-95 586.4271,-89.2283 594.5445,-84.5251 602.6826,-80.7586"/>
<polygon fill="#000000" stroke="#000000" points="604.3085,-83.8715 612.1615,-76.7594 601.5874,-77.422 604.3085,-83.8715"/>
</g>
<!-- Draw_MAP&#45;&gt;gotobord -->
<g id="edge16" class="edge">
<title>Draw_MAP-&gt;gotobord</title>
<path fill="none" stroke="#000000" d="M488.0008,-744.9248C505.384,-749.6092 525.4971,-755.0422 543.7315,-760 560.3158,-764.5091 578.4617,-769.4727 594.6115,-773.9008"/>
<polygon fill="#000000" stroke="#000000" points="593.8075,-777.3095 604.3772,-776.5798 595.6595,-770.5589 593.8075,-777.3095"/>
</g>
<!-- gotorowcol -->
<g id="node15" class="node">
<title>gotorowcol</title>
<ellipse fill="none" stroke="#000000" cx="642.2695" cy="-733" rx="55.0381" ry="18"/>
<text text-anchor="middle" x="642.2695" y="-728.8" font-family="Times,serif" font-size="14.00" fill="#000000">gotorowcol</text>
</g>
<!-- Draw_MAP&#45;&gt;gotorowcol -->
<g id="edge14" class="edge">
<title>Draw_MAP-&gt;gotorowcol</title>
<path fill="none" stroke="#000000" d="M501.8999,-733C525.4372,-733 552.7092,-733 576.9198,-733"/>
<polygon fill="#000000" stroke="#000000" points="577.0886,-736.5001 587.0885,-733 577.0885,-729.5001 577.0886,-736.5001"/>
</g>
<!-- Color -->
<g id="node16" class="node">
<title>Color</title>
<ellipse fill="none" stroke="#000000" cx="642.2695" cy="-606" rx="33.0643" ry="18"/>
<text text-anchor="middle" x="642.2695" y="-601.8" font-family="Times,serif" font-size="14.00" fill="#000000">Color</text>
</g>
<!-- Draw_MAP&#45;&gt;Color -->
<g id="edge15" class="edge">
<title>Draw_MAP-&gt;Color</title>
<path fill="none" stroke="#000000" d="M491.3841,-722.548C508.6227,-717.5569 527.756,-710.5391 543.7315,-701 575.0295,-682.3116 604.2007,-651.9084 622.5556,-630.5406"/>
<polygon fill="#000000" stroke="#000000" points="625.2787,-632.7405 629.0426,-622.8368 619.9242,-628.2317 625.2787,-632.7405"/>
</g>
<!-- Pos_Snoopy&#45;&gt;gotobord -->
<g id="edge21" class="edge">
<title>Pos_Snoopy-&gt;gotobord</title>
<path fill="none" stroke="#000000" d="M503.2419,-787C529.5707,-787 560.3586,-787 586.26,-787"/>
<polygon fill="#000000" stroke="#000000" points="586.2946,-790.5001 596.2946,-787 586.2945,-783.5001 586.2946,-790.5001"/>
</g>
<!-- Pos_Snoopy&#45;&gt;Move_Snoopy -->
<g id="edge20" class="edge">
<title>Pos_Snoopy-&gt;Move_Snoopy</title>
<path fill="none" stroke="#000000" d="M385.2674,-783.6457C371.2684,-780.0325 356.6054,-775.106 343.5671,-769 312.3703,-754.3901 280.5466,-730.4181 260.4841,-711.9094"/>
<polygon fill="#000000" stroke="#000000" points="262.7824,-709.264 253.1453,-704.8622 257.934,-714.3131 262.7824,-709.264"/>
</g>
<!-- Rules&#45;&gt;getch -->
<g id="edge28" class="edge">
<title>Rules-&gt;getch</title>
<path fill="none" stroke="#000000" d="M472.9564,-287.7057C507.7255,-298.0338 565.7869,-315.2809 604.0547,-326.6483"/>
<polygon fill="#000000" stroke="#000000" points="603.2261,-330.0533 613.8088,-329.5458 605.2194,-323.3431 603.2261,-330.0533"/>
</g>
<!-- system -->
<g id="node21" class="node">
<title>system</title>
<ellipse fill="none" stroke="#000000" cx="642.2695" cy="-284" rx="37.7179" ry="18"/>
<text text-anchor="middle" x="642.2695" y="-279.8" font-family="Times,serif" font-size="14.00" fill="#000000">system</text>
</g>
<!-- Rules&#45;&gt;system -->
<g id="edge26" class="edge">
<title>Rules-&gt;system</title>
<path fill="none" stroke="#000000" d="M476.8939,-279.8369C508.8568,-280.6415 557.5296,-281.8668 593.8064,-282.78"/>
<polygon fill="#000000" stroke="#000000" points="594.0741,-286.2878 604.159,-283.0406 594.2503,-279.29 594.0741,-286.2878"/>
</g>
<!-- printf -->
<g id="node22" class="node">
<title>printf</title>
<ellipse fill="none" stroke="#000000" cx="642.2695" cy="-230" rx="32.4808" ry="18"/>
<text text-anchor="middle" x="642.2695" y="-225.8" font-family="Times,serif" font-size="14.00" fill="#000000">printf</text>
</g>
<!-- Rules&#45;&gt;printf -->
<g id="edge27" class="edge">
<title>Rules-&gt;printf</title>
<path fill="none" stroke="#000000" d="M473.8154,-271.558C508.1373,-263.0907 564.333,-249.2271 602.2835,-239.8646"/>
<polygon fill="#000000" stroke="#000000" points="603.5997,-243.1449 612.4703,-237.3515 601.923,-236.3487 603.5997,-243.1449"/>
</g>
<!-- listdirfiles&#45;&gt;getcwd -->
<g id="edge31" class="edge">
<title>listdirfiles-&gt;getcwd</title>
<path fill="none" stroke="#000000" d="M475.642,-357.1107C497.5687,-346.1165 525.8215,-328.8157 543.7315,-306 573.6746,-267.8553 546.6859,-238.4907 579.7315,-203 585.1145,-197.2187 591.9461,-192.6162 599.1039,-188.9709"/>
<polygon fill="#000000" stroke="#000000" points="600.5785,-192.1454 608.2603,-184.8487 597.7049,-185.7624 600.5785,-192.1454"/>
</g>
<!-- FindFirstFile -->
<g id="node24" class="node">
<title>FindFirstFile</title>
<ellipse fill="none" stroke="#000000" cx="642.2695" cy="-446" rx="61.4475" ry="18"/>
<text text-anchor="middle" x="642.2695" y="-441.8" font-family="Times,serif" font-size="14.00" fill="#000000">FindFirstFile</text>
</g>
<!-- listdirfiles&#45;&gt;FindFirstFile -->
<g id="edge32" class="edge">
<title>listdirfiles-&gt;FindFirstFile</title>
<path fill="none" stroke="#000000" d="M487.3415,-380.1248C505.1832,-384.5303 525.7978,-390.5066 543.7315,-398 560.8228,-405.1414 563.1985,-410.6471 579.7315,-419 585.2731,-421.7997 591.1719,-424.5867 597.0483,-427.2483"/>
<polygon fill="#000000" stroke="#000000" points="595.6496,-430.4567 606.2099,-431.3116 598.4876,-424.0578 595.6496,-430.4567"/>
</g>
<!-- FindNextFile -->
<g id="node25" class="node">
<title>FindNextFile</title>
<ellipse fill="none" stroke="#000000" cx="642.2695" cy="-392" rx="62.5759" ry="18"/>
<text text-anchor="middle" x="642.2695" y="-387.8" font-family="Times,serif" font-size="14.00" fill="#000000">FindNextFile</text>
</g>
<!-- listdirfiles&#45;&gt;FindNextFile -->
<g id="edge33" class="edge">
<title>listdirfiles-&gt;FindNextFile</title>
<path fill="none" stroke="#000000" d="M491.9833,-376.1103C516.4202,-378.694 546.5068,-381.8751 573.3248,-384.7105"/>
<polygon fill="#000000" stroke="#000000" points="573.1118,-388.2074 583.4244,-385.7783 573.8478,-381.2462 573.1118,-388.2074"/>
</g>
<!-- save_game -->
<g id="node23" class="node">
<title>save_game</title>
<ellipse fill="none" stroke="#000000" cx="443.6493" cy="-18" rx="53.8731" ry="18"/>
<text text-anchor="middle" x="443.6493" y="-13.8" font-family="Times,serif" font-size="14.00" fill="#000000">save_game</text>
</g>
<!-- save_game&#45;&gt;fopen -->
<g id="edge29" class="edge">
<title>save_game-&gt;fopen</title>
<path fill="none" stroke="#000000" d="M493.8723,-24.5731C510.7915,-28.5303 529.0787,-34.8645 543.7315,-45 566.2519,-60.5775 558.3906,-77.8421 579.7315,-95 586.8297,-100.7069 595.3171,-105.4237 603.7154,-109.2296"/>
<polygon fill="#000000" stroke="#000000" points="602.5044,-112.5168 613.0807,-113.1438 605.2038,-106.0582 602.5044,-112.5168"/>
</g>
<!-- save_game&#45;&gt;fclose -->
<g id="edge30" class="edge">
<title>save_game-&gt;fclose</title>
<path fill="none" stroke="#000000" d="M486.7469,-28.8493C520.7646,-37.4127 567.9029,-49.2792 601.3448,-57.6977"/>
<polygon fill="#000000" stroke="#000000" points="600.7019,-61.1451 611.2538,-60.1922 602.4108,-54.3568 600.7019,-61.1451"/>
</g>
<!-- getscores -->
<g id="node26" class="node">
<title>getscores</title>
<ellipse fill="none" stroke="#000000" cx="443.6493" cy="-126" rx="46.9265" ry="18"/>
<text text-anchor="middle" x="443.6493" y="-121.8" font-family="Times,serif" font-size="14.00" fill="#000000">getscores</text>
</g>
<!-- getscores&#45;&gt;getcwd -->
<g id="edge34" class="edge">
<title>getscores-&gt;getcwd</title>
<path fill="none" stroke="#000000" d="M483.3657,-135.9981C516.5436,-144.3502 563.8033,-156.2472 598.1533,-164.8943"/>
<polygon fill="#000000" stroke="#000000" points="597.3703,-168.3064 607.9222,-167.3535 599.0792,-161.5181 597.3703,-168.3064"/>
</g>
<!-- getscores&#45;&gt;fopen -->
<g id="edge35" class="edge">
<title>getscores-&gt;fopen</title>
<path fill="none" stroke="#000000" d="M490.7195,-125.0521C523.4943,-124.392 566.8811,-123.5182 598.8312,-122.8748"/>
<polygon fill="#000000" stroke="#000000" points="599.2686,-126.3668 609.1961,-122.6661 599.1276,-119.3682 599.2686,-126.3668"/>
</g>
<!-- getscores&#45;&gt;fclose -->
<g id="edge36" class="edge">
<title>getscores-&gt;fclose</title>
<path fill="none" stroke="#000000" d="M482.7276,-115.858C501.2649,-110.9448 523.6926,-104.8524 543.7315,-99 563.4855,-93.2308 585.3286,-86.405 603.4191,-80.6291"/>
<polygon fill="#000000" stroke="#000000" points="604.5928,-83.9283 613.0462,-77.5416 602.4551,-77.2627 604.5928,-83.9283"/>
</g>
<!-- viewscores -->
<g id="node27" class="node">
<title>viewscores</title>
<ellipse fill="none" stroke="#000000" cx="443.6493" cy="-533" rx="53.8693" ry="18"/>
<text text-anchor="middle" x="443.6493" y="-528.8" font-family="Times,serif" font-size="14.00" fill="#000000">viewscores</text>
</g>
<!-- viewscores&#45;&gt;Color -->
<g id="edge37" class="edge">
<title>viewscores-&gt;Color</title>
<path fill="none" stroke="#000000" d="M488.5065,-543.3341C505.9555,-547.8113 525.9816,-553.5181 543.7315,-560 566.1845,-568.1993 590.5306,-579.5399 609.4053,-588.909"/>
<polygon fill="#000000" stroke="#000000" points="607.9612,-592.1004 618.4679,-593.4643 611.1049,-585.846 607.9612,-592.1004"/>
</g>
<!-- viewscores&#45;&gt;printf -->
<g id="edge38" class="edge">
<title>viewscores-&gt;printf</title>
<path fill="none" stroke="#000000" d="M497.0679,-530.032C514.2653,-526.3886 531.9109,-519.3306 543.7315,-506 617.9182,-422.3372 511.7582,-345.7848 579.7315,-257 585.4861,-249.4836 593.7563,-244.0279 602.4064,-240.0791"/>
<polygon fill="#000000" stroke="#000000" points="603.8214,-243.2835 611.8406,-236.3594 601.2538,-236.7713 603.8214,-243.2835"/>
</g>
<!-- setscore -->
<g id="node28" class="node">
<title>setscore</title>
<ellipse fill="none" stroke="#000000" cx="239.6637" cy="-126" rx="42.27" ry="18"/>
<text text-anchor="middle" x="239.6637" y="-121.8" font-family="Times,serif" font-size="14.00" fill="#000000">setscore</text>
</g>
<!-- setscore&#45;&gt;printf -->
<g id="edge40" class="edge">
<title>setscore-&gt;printf</title>
<path fill="none" stroke="#000000" d="M255.0188,-142.8696C273.7856,-162.2111 307.5215,-193.0398 343.5671,-207 429.8134,-240.4025 540.3664,-238.4983 599.8443,-234.2203"/>
<polygon fill="#000000" stroke="#000000" points="600.2906,-237.6962 609.989,-233.4312 599.7477,-230.7173 600.2906,-237.6962"/>
</g>
<!-- setscore&#45;&gt;getscores -->
<g id="edge39" class="edge">
<title>setscore-&gt;getscores</title>
<path fill="none" stroke="#000000" d="M281.9297,-126C312.176,-126 353.2423,-126 386.4229,-126"/>
<polygon fill="#000000" stroke="#000000" points="386.4465,-129.5001 396.4465,-126 386.4465,-122.5001 386.4465,-129.5001"/>
</g>
<!-- scanf -->
<g id="node29" class="node">
<title>scanf</title>
<ellipse fill="none" stroke="#000000" cx="443.6493" cy="-72" rx="31.3179" ry="18"/>
<text text-anchor="middle" x="443.6493" y="-67.8" font-family="Times,serif" font-size="14.00" fill="#000000">scanf</text>
</g>
<!-- setscore&#45;&gt;scanf -->
<g id="edge41" class="edge">
<title>setscore-&gt;scanf</title>
<path fill="none" stroke="#000000" d="M275.6627,-116.4702C311.9403,-106.8666 367.7387,-92.0954 404.9498,-82.2447"/>
<polygon fill="#000000" stroke="#000000" points="406.1493,-85.5478 414.9206,-79.6052 404.3579,-78.7809 406.1493,-85.5478"/>
</g>
</g>
</svg>